<svg width="32" height="32" viewBox="0 0 32 32" fill="none" xmlns="http://www.w3.org/2000/svg">
<path d="M21.3334 10.6667L10.6667 14.6667M21.3334 21.3334L10.6667 17.3334M10.6667 16C10.6667 17.4728 9.4728 18.6667 8.00004 18.6667C6.52728 18.6667 5.33337 17.4728 5.33337 16C5.33337 14.5273 6.52728 13.3334 8.00004 13.3334C9.4728 13.3334 10.6667 14.5273 10.6667 16ZM26.6667 9.33335C26.6667 10.8061 25.4728 12 24 12C22.5273 12 21.3334 10.8061 21.3334 9.33335C21.3334 7.86059 22.5273 6.66669 24 6.66669C25.4728 6.66669 26.6667 7.86059 26.6667 9.33335ZM26.6667 22.6667C26.6667 24.1394 25.4728 25.3334 24 25.3334C22.5273 25.3334 21.3334 24.1394 21.3334 22.6667C21.3334 21.1939 22.5273 20 24 20C25.4728 20 26.6667 21.1939 26.6667 22.6667Z" stroke="black" stroke-width="2" stroke-linecap="square"/>
</svg>
