<svg width="162" height="49" viewBox="0 0 162 49" fill="none" xmlns="http://www.w3.org/2000/svg">
<path fill-rule="evenodd" clip-rule="evenodd" d="M82.7559 2.65957V48.5956H89.072V26.9551H93.2828V47.3249L93.9372 46.685L94.6364 46.0015L95.3355 46.685L96.2727 47.6015L97.21 46.685L97.9091 46.0015L98.6082 46.685L99.3486 47.4089L99.599 47.0008V34.5719L95.6421 30.5165L94.9626 29.82L95.9245 29.673L99.599 29.1116V1.40454H93.2828V23.1798H89.072V2.85105L88.4286 3.28438L87.8463 2.71505L86.9091 1.79864L85.9718 2.71505L85.2727 3.39864L84.5736 2.71505L83.6364 1.79864L82.7559 2.65957ZM60.9135 5.81061L60.9152 5.82561C59.2567 6.41462 57.0795 6.82875 54.6291 6.9576V6.93263C54.6291 5.49443 53.9273 4.77533 52.5238 4.77533C51.1334 4.77533 50.4316 5.48095 50.4186 6.89219C48.2507 6.70775 46.3375 6.29757 44.8658 5.7457C44.6255 5.65558 44.3999 5.56276 44.189 5.4679C44.43 4.23919 45.1731 3.24429 46.4181 2.48319C47.9621 1.49443 50.0324 1.00005 52.629 1.00005C55.2257 1.00005 57.2609 1.49443 58.7347 2.48319C59.711 3.10844 60.3639 3.89148 60.6935 4.8323C60.77 4.80709 60.8649 4.76896 60.9786 4.71213C61.2467 4.57809 61.5915 4.35351 62 4.00001C62.4136 3.6421 62.8873 3.15649 63.4073 2.50895C63.8018 2.86237 63.9506 3.15556 63.9891 3.37683C63.5103 3.9501 63.0626 4.40293 62.6544 4.75618C62.1962 5.15269 61.7827 5.42811 61.4258 5.60656C61.248 5.69548 61.0759 5.76444 60.9135 5.81061ZM54.6291 7.95893C57.0341 7.83651 59.2127 7.44691 60.9453 6.87245V19.2697H54.6291V7.95893ZM44.1022 6.51946C45.7465 7.20044 47.9389 7.6918 50.4184 7.89565V43.0675C50.4184 44.5057 51.1202 45.2248 52.5238 45.2248C53.9273 45.2248 54.6291 44.4158 54.6291 42.7978V27.4944H52.5238V23.7191H60.9453V48.5956H54.6291V45.8989H54.4186C53.6466 47.9663 52.0676 49 49.6815 49C47.9972 49 46.6287 48.5281 45.576 47.5843C44.5934 46.5956 44.1022 45.2697 44.1022 43.6068V6.51946ZM64.6896 2.47877C64.5248 2.21238 64.2969 1.95507 64.0121 1.70916C64.3437 1.24504 64.6901 0.718061 65.0484 0.12085L65.9059 0.635345C65.4869 1.33373 65.0802 1.94501 64.6896 2.47877ZM40.8936 2.09932L39.7357 1.40454H30.7379V48.5956H41.3884L41.1464 48.3536L40.7929 48L41.1464 47.6465L41.7912 47.0017V46.9984L41.1464 46.3536L40.7929 46L41.1464 45.6465L41.6936 45.0993L41.2285 44.8203H37.0541V26.2809H40.7385V26.2457L40.1464 25.6536L39.7929 25.3L40.1464 24.9465L40.7385 24.3544V24.2457L40.1464 23.6536L39.7929 23.3L40.1464 22.9465L40.5873 22.5057H37.0541V5.17982H40.1727L39.9929 5.00005L40.3464 4.64649L40.9929 4.00005L40.3464 3.3536L39.9929 3.00005L40.3464 2.64649L40.8936 2.09932ZM26.5307 45.3045C26.9122 45.4625 27.2662 45.6784 27.5806 45.9439V1.40454H17.3695L14.4219 28.9776L13.8956 39.2248H13.685L13.1587 28.9102L10.2111 1.40454H0V46.3543C0.0551973 46.2917 0.112411 46.2308 0.171573 46.1716C0.543007 45.8002 0.983964 45.5056 1.46927 45.3045C1.95457 45.1035 2.47471 45 3 45C3.52529 45 4.04543 45.1035 4.53073 45.3045C5.01604 45.5056 5.45699 45.8002 5.82843 46.1716C5.85093 46.1941 5.87316 46.2169 5.8951 46.2399V18.2585L5.68456 8.0787H5.8951L6.73725 18.2585L10.1059 48.5956H13.1966C13.0731 48.4292 13 48.2232 13 48C13 47.4478 13.4477 47 14 47C14.5523 47 15 47.4478 15 48C15 48.2232 14.9269 48.4292 14.8034 48.5956H17.4747L20.8434 18.2585L21.6855 8.14611H21.8961L21.6855 18.2585V46.7608C21.828 46.5499 21.9907 46.3525 22.1716 46.1716C22.543 45.8002 22.984 45.5056 23.4693 45.3045C23.9546 45.1035 24.4747 45 25 45C25.5253 45 26.0454 45.1035 26.5307 45.3045ZM81.2023 48.5956H74.5703L73.5176 36.1911H69.5174L68.4647 48.5956H62.5696L64.1351 33H79.3933L81.2023 48.5956ZM67.3067 1.40454L64.4362 30H70.0417L70.9912 19L71.4122 7.40454H71.6228L72.1491 19L73.0123 30H79.0453L75.7283 1.40454H67.3067ZM101.223 48.5956L101.273 48.0961L102.852 45.5231L101.819 44.8887L107.709 41.6324L107.118 48.5956H101.223ZM99.599 30.1232L97.0374 30.5146L99.599 33.14V30.1232ZM102.478 36.0912L103.132 29.5835L104.368 29.3947L104.632 29.3544L104.745 29.1128L108 22.177L109.158 24.6438L108.487 32.4158H111.855L111.618 29.3925L111.632 29.3947L117.737 30.3273L117.887 31.6174L113.642 35.9676L113.466 36.1482L113.507 36.3973L114.757 44.0643L112.745 42.952L112.171 36.1911H108.171L107.811 40.4335L107.758 40.4628L101.704 43.8095L102.375 37.1261L102.493 36.3973L102.534 36.1482L102.478 36.0912ZM112.847 44.1509L113.224 48.5956H119.856L118.035 32.8972L114.534 36.4853L115.91 44.9195L116.076 45.9358L115.175 45.4376L112.847 44.1509ZM117.617 29.2975L114.382 1.40454H105.96L103.235 28.5562L103.953 28.4464L107.547 20.7876L108 19.8231L108.453 20.7876L109.329 22.6556L109.645 19L110.066 7.40454H110.276L110.803 19L111.443 27.1598L112.047 28.4464L117.617 29.2975ZM133.41 48.5956H142.042V31.2778H136.927C136.899 31.3152 136.871 31.3523 136.843 31.3889L137.411 40.6405H137.2L135.711 32.4809C134.82 33.1224 133.73 33.5 132.55 33.5C131.864 33.5 131.209 33.3724 130.605 33.1396L133.41 48.5956ZM137.512 30.2778H142.042V25.7223H137.512C137.825 26.4167 138 27.1881 138 28C138 28.812 137.825 29.5834 137.512 30.2778ZM136.927 24.7223L142.042 24.7223V1.40454H136.147L136.449 24.1574C136.621 24.3345 136.78 24.5232 136.927 24.7223ZM130.042 1.40454L133.922 22.6758C133.484 22.5611 133.024 22.5 132.55 22.5C131.158 22.5 129.889 23.0264 128.926 23.8917L126.252 9.15735H126.041L126.953 24.7223H121.41V1.40454H130.042ZM132.55 23.5C131.186 23.5 129.963 24.1215 129.146 25.1015L130.386 31.9328C131.027 32.2942 131.765 32.5 132.55 32.5C133.684 32.5 134.72 32.0705 135.507 31.3626L134.126 23.7905C133.636 23.6028 133.104 23.5 132.55 23.5ZM136.508 25.9418L136.73 29.5483C136.905 29.0658 137 28.5444 137 28C137 27.2578 136.823 26.5582 136.508 25.9418ZM121.5 25.7223H126.994L127.056 30.2778H121.5V25.7223ZM121.41 31.2778L127.069 31.2778L127.305 48.5956H121.41V31.2778ZM162 43.2023C162 44.8652 161.403 46.1911 160.21 47.1798C159.017 48.1236 156.842 48.5956 153.684 48.5956H151.979C151.94 48.209 151.845 47.8296 151.696 47.4693C151.495 46.984 151.2 46.543 150.828 46.1716C150.457 45.8002 150.016 45.5055 149.531 45.3045C149.045 45.1035 148.525 45 148 45C147.475 45 146.955 45.1035 146.469 45.3045C145.984 45.5055 145.543 45.8002 145.172 46.1716C145.167 46.1765 145.162 46.1814 145.157 46.1864V1.40454H153.684C156.842 1.40454 159.017 1.89892 160.21 2.88769C161.403 3.83151 162 5.13488 162 6.7978V43.2023ZM155.684 7.13488C155.684 6.37083 155.508 5.85398 155.157 5.58432C154.877 5.31465 154.35 5.17982 153.578 5.17982H151.473V44.8203H153.578C154.35 44.8203 154.877 44.6854 155.157 44.4158C155.508 44.1461 155.684 43.6293 155.684 42.8652V7.13488ZM75 34.5H78L78.6937 38.5H75.6396L75 34.5ZM14 43C14.5523 43 15 42.5523 15 42C15 41.4478 14.5523 41 14 41C13.4477 41 13 41.4478 13 42C13 42.5523 13.4477 43 14 43ZM15 45C15 45.5523 14.5523 46 14 46C13.4477 46 13 45.5523 13 45C13 44.4478 13.4477 44 14 44C14.5523 44 15 44.4478 15 45ZM59 33.5C59 33.7952 58.9489 34.0431 58.8676 34.2469C58.6051 34.0887 58.3108 34 58 34C57.6892 34 57.3949 34.0887 57.1324 34.2469C57.0511 34.0431 57 33.7952 57 33.5C57 32.4519 57.6444 32 58 32C58.3556 32 59 32.4519 59 33.5ZM60 33.5C60 34.0628 59.8512 34.5822 59.6001 35C59.8512 35.4179 60 35.9372 60 36.5C60 37.0629 59.8512 37.5822 59.6001 38.0001C59.8512 38.4179 60 38.9372 60 39.5C60 40.8808 59.1046 42 58 42C56.8954 42 56 40.8808 56 39.5C56 38.9372 56.1488 38.4179 56.3999 38.0001C56.1488 37.5822 56 37.0629 56 36.5C56 35.9372 56.1488 35.4179 56.3999 35C56.1488 34.5822 56 34.0628 56 33.5C56 32.1193 56.8954 31 58 31C59.1046 31 60 32.1193 60 33.5ZM57.1324 38.7532C57.0511 38.957 57 39.2049 57 39.5C57 40.5482 57.6444 41 58 41C58.3556 41 59 40.5482 59 39.5C59 39.2049 58.9489 38.957 58.8676 38.7532C58.6051 38.9114 58.3108 39 58 39C57.6892 39 57.3949 38.9114 57.1324 38.7532ZM57.1324 37.2469C57.0511 37.0431 57 36.7952 57 36.5C57 36.2049 57.0511 35.957 57.1324 35.7532C57.3949 35.9114 57.6892 36 58 36C58.3108 36 58.6051 35.9114 58.8676 35.7532C58.9489 35.957 59 36.2049 59 36.5C59 36.7952 58.9489 37.0431 58.8676 37.2469C58.6051 37.0887 58.3108 37 58 37C57.6892 37 57.3949 37.0887 57.1324 37.2469ZM140 44C140.552 44 141 43.5523 141 43C141 42.4477 140.552 42 140 42C139.448 42 139 42.4477 139 43C139 43.5523 139.448 44 140 44ZM141 46C141 46.5523 140.552 47 140 47C139.448 47 139 46.5523 139 46C139 45.4477 139.448 45 140 45C140.552 45 141 45.4477 141 46Z" fill="white"/>
<path d="M6 49C6 48.606 5.9224 48.2159 5.77164 47.852C5.62087 47.488 5.3999 47.1573 5.12132 46.8787C4.84274 46.6001 4.51203 46.3791 4.14805 46.2284C3.78407 46.0776 3.39397 46 3 46C2.60603 46 2.21593 46.0776 1.85195 46.2284C1.48797 46.3791 1.15726 46.6001 0.87868 46.8787C0.600104 47.1573 0.379125 47.488 0.228361 47.852C0.0775972 48.2159 -3.44416e-08 48.606 0 49H3H6Z" fill="white"/>
<path d="M151 49C151 48.606 150.922 48.2159 150.772 47.852C150.621 47.488 150.4 47.1573 150.121 46.8787C149.843 46.6001 149.512 46.3791 149.148 46.2284C148.784 46.0776 148.394 46 148 46C147.606 46 147.216 46.0776 146.852 46.2284C146.488 46.3791 146.157 46.6001 145.879 46.8787C145.6 47.1573 145.379 47.488 145.228 47.852C145.078 48.2159 145 48.606 145 49H148H151Z" fill="white"/>
<path d="M28 49C28 48.606 27.9224 48.2159 27.7716 47.852C27.6209 47.488 27.3999 47.1573 27.1213 46.8787C26.8427 46.6001 26.512 46.3791 26.1481 46.2284C25.7841 46.0776 25.394 46 25 46C24.606 46 24.2159 46.0776 23.8519 46.2284C23.488 46.3791 23.1573 46.6001 22.8787 46.8787C22.6001 47.1573 22.3791 47.488 22.2284 47.852C22.0776 48.2159 22 48.606 22 49H25H28Z" fill="white"/>
</svg>
