<svg width="162" height="36" viewBox="0 0 162 36" fill="none" xmlns="http://www.w3.org/2000/svg">
<g clip-path="url(#clip0_75_253)">
<path d="M41.2514 35.9851C38.2122 35.8655 35.7257 35.0419 33.7814 33.5123C33.4104 33.2201 32.5262 32.344 32.2296 31.9744C31.4412 30.9927 30.9051 30.0372 30.5476 28.9771C29.4475 25.7137 30.0137 21.4315 32.1671 16.7318C34.0109 12.7083 36.856 8.7178 41.8197 3.19096C42.5508 2.3777 44.7282 -0.000732422 44.7423 -0.000732422C44.7475 -0.000732422 44.6288 0.202838 44.4795 0.450734C43.1888 2.59158 42.0845 5.11329 41.4829 7.29641C40.5166 10.7994 40.6331 13.8056 41.8243 16.1366C42.6461 17.7425 44.0548 19.1335 45.6389 19.9024C48.4122 21.248 52.4724 21.3594 57.4308 20.2281C57.7722 20.1498 74.6886 15.7026 95.023 10.3453C115.357 4.98754 131.997 0.607405 132 0.611011C132.006 0.615658 84.7574 20.6378 60.2301 31.0251C56.3458 32.6697 55.3071 33.0851 53.4809 33.72C48.8129 35.3434 44.6314 36.118 41.2514 35.9851Z" fill="black"/>
</g>
<defs>
<clipPath id="clip0_75_253">
<rect width="162" height="36" fill="white"/>
</clipPath>
</defs>
</svg>
