<svg width="189" height="67" viewBox="0 0 189 67" fill="none" xmlns="http://www.w3.org/2000/svg">
<path d="M20.8481 66.9726C15.2167 66.7501 10.6093 65.2173 7.00678 62.3705C6.31925 61.8267 4.68093 60.1961 4.13128 59.5084C2.67039 57.6812 1.67718 55.9029 1.01472 53.9299C-1.02378 47.8565 0.0253604 39.8868 4.01557 31.1402C7.43203 23.652 12.7038 16.2252 21.9011 5.93912C23.2559 4.42555 27.2905 -0.000976562 27.3165 -0.000976562C27.3262 -0.000976562 27.1063 0.377891 26.8296 0.839252C24.4382 4.82361 22.3919 9.51678 21.2772 13.5798C19.4865 20.0992 19.7025 25.694 21.9098 30.0323C23.4324 33.0211 26.0427 35.6099 28.978 37.041C34.1167 39.5453 41.64 39.7525 50.8277 37.6471C51.4603 37.5014 82.8053 29.2247 120.484 19.2542C158.162 9.28275 188.995 1.13083 189 1.13755C189.011 1.14619 101.462 38.4097 56.0146 57.7416C48.8172 60.8023 46.8925 61.5754 43.5088 62.7571C34.8592 65.7784 27.1111 67.2201 20.8481 66.9726Z" fill="white"/>
</svg>
