<svg width="973" height="273" viewBox="0 0 973 273" fill="none" xmlns="http://www.w3.org/2000/svg">
<path d="M178.694 118L140.102 60.112L177.83 22.384H151.91L115.334 61.264V22.384H95.6058V118H115.334V85.456L125.99 74.944L154.358 118H178.694ZM239.968 81.856H215.632L227.872 43.84H228.016L239.968 81.856ZM273.52 118L239.824 22.384H216.64L182.512 118H203.68L210.448 98.272H245.728L251.776 118H273.52ZM404.211 118L364.035 69.328L402.483 22.384H379.299L350.787 57.808V22.384H332.067V57.808L303.555 22.384H280.371L318.675 69.328L278.499 118H302.403L332.067 78.688V118H350.787V78.688L380.451 118H404.211ZM484.087 118V101.008H430.951V76.384H477.751V59.536H430.951V39.088H481.783V22.384H411.511V118H484.087ZM537.112 118V39.088H566.056V22.384H488.296V39.088H517.096V118H537.112ZM633.37 85.168C630.634 97.12 623.434 103.888 611.626 103.888C596.074 103.888 588.298 91.36 588.298 70.192C588.298 49.312 596.074 36.496 612.634 36.496C622.138 36.496 630.634 42.976 633.37 53.776H653.386C651.514 34.48 636.394 19.216 612.49 19.216C585.13 19.216 567.994 38.944 567.994 71.344C567.994 104.176 587.146 121.312 612.202 121.312C634.378 121.312 649.354 106.912 653.386 85.168H633.37ZM716.931 80.56V118H736.371V22.384H690.291C671.139 22.384 659.331 32.752 659.331 51.472C659.331 67.456 667.827 77.392 682.371 79.84L658.035 118H680.787L702.819 80.56H716.931ZM692.163 65.44C682.803 65.44 677.187 60.112 677.187 51.904C677.187 43.696 682.803 38.656 692.163 38.656H716.931V65.44H692.163ZM803.379 101.728V75.952H829.011C837.939 75.952 843.411 79.696 843.411 88.048C843.411 95.824 837.939 101.728 828.723 101.728H803.379ZM827.427 38.944C836.787 38.944 840.675 41.968 840.675 49.312C840.675 56.08 836.499 59.68 828.579 59.68H803.379V38.944H827.427ZM827.139 118C851.187 118 862.851 106.912 862.851 89.488C862.851 75.808 856.371 69.328 848.307 66.304C854.931 63.568 859.971 56.656 859.971 48.448C859.971 32.464 849.891 22.384 831.171 22.384H784.083V118H827.139ZM966.563 118V22.384H946.547V118H966.563ZM910.403 73.216C919.907 73.216 925.523 79.12 925.523 87.472C925.523 95.968 919.619 101.872 910.403 101.872H889.523V73.216H910.403ZM889.523 57.664V22.384H870.083V118H911.699C930.851 118 942.659 107.056 942.659 87.76C942.659 68.464 930.851 57.664 911.699 57.664H889.523Z" fill="black"/>
<path d="M43.0761 206.096C55.1721 206.096 62.0841 209.12 62.0841 219.488C62.0841 230 54.7401 234.752 42.2121 234.752C27.6681 234.752 21.9081 228.56 21.1881 217.04H1.89214C1.89214 236.48 13.4121 251.312 41.6361 251.312C66.8361 251.312 81.8121 239.504 81.8121 220.64C81.8121 206.96 73.8921 198.608 62.9481 196.592C73.1721 193.856 78.7881 186.08 78.7881 175.424C78.7881 160.16 66.9801 149.216 41.9241 149.216C13.9881 149.216 3.62014 162.896 3.62014 181.472H22.4841C22.4841 170.24 28.3881 165.488 41.7801 165.488C54.0201 165.488 59.4921 169.52 59.4921 176.72C59.4921 184.352 53.3001 189.536 42.3561 189.536H33.4281V206.096H43.0761ZM138.718 211.856H114.382L126.622 173.84H126.766L138.718 211.856ZM172.27 248L138.574 152.384H115.39L81.262 248H102.43L109.198 228.272H144.478L150.526 248H172.27ZM199.425 187.664V169.52H235.713V152.384H179.985V248H221.601C240.753 248 252.561 237.056 252.561 217.76C252.561 198.464 240.753 187.664 221.601 187.664H199.425ZM220.305 203.216C229.809 203.216 235.425 209.12 235.425 217.472C235.425 225.968 229.521 231.872 220.305 231.872H199.425V203.216H220.305ZM342.875 248V152.384H280.955L278.795 189.68C276.635 226.256 272.603 231.008 259.499 231.008H257.195V248H260.795C284.987 248 293.483 240.08 296.219 189.68L297.371 168.656H323.147V248H342.875ZM428.257 216.464V152.384H408.817V177.152C408.817 188.528 401.329 195.872 390.097 195.872C380.305 195.872 372.817 190.256 372.817 177.008V152.384H353.089V177.152C353.089 201.632 365.041 212.288 382.897 212.288C394.561 212.288 404.497 207.824 408.817 199.904V216.464C408.817 229.568 401.617 235.472 390.241 235.472C379.153 235.472 372.097 229.712 371.953 217.184H354.241C354.385 241.52 367.345 251.312 389.809 251.312C414.145 251.312 428.257 239.648 428.257 216.464ZM447.24 272.336V248H517.944V272.336H532.344V231.008H520.68V152.384H458.76L456.744 189.68C454.872 225.248 449.976 231.008 439.032 231.008H432.84V272.336H447.24ZM501.096 168.656V231.008H466.392C470.424 223.232 473.16 209.84 474.168 189.68L475.176 168.656H501.096ZM559.257 248L599.001 182.912V248H617.865V152.384H596.985L559.545 214.736V152.384H540.537V248H559.257ZM711.02 248V152.384H649.1L646.94 189.68C644.78 226.256 640.748 231.008 627.644 231.008H625.34V248H628.94C653.132 248 661.628 240.08 664.364 189.68L665.516 168.656H691.292V248H711.02ZM739.954 248L779.698 182.912V248H798.562V152.384H777.682L740.242 214.736V152.384H721.234V248H739.954ZM872.422 215.168C869.686 227.12 862.486 233.888 850.678 233.888C835.126 233.888 827.35 221.36 827.35 200.192C827.35 179.312 835.126 166.496 851.686 166.496C861.19 166.496 869.686 172.976 872.422 183.776H892.438C890.566 164.48 875.446 149.216 851.542 149.216C824.182 149.216 807.046 168.944 807.046 201.344C807.046 234.176 826.198 251.312 851.254 251.312C873.43 251.312 888.406 236.912 892.438 215.168H872.422ZM940.142 203.216C949.646 203.216 955.262 209.12 955.262 217.472C955.262 225.968 949.358 231.872 940.142 231.872H919.262V203.216H940.142ZM919.262 187.664V152.384H899.822V248H941.438C960.59 248 972.398 237.056 972.398 217.76C972.398 198.464 960.59 187.664 941.438 187.664H919.262Z" fill="#0D674C"/>
<rect x="1" y="23" width="79" height="95" fill="black"/>
<path d="M46.256 100.945L46.256 109.649L31.28 100.945L46.256 100.945ZM62 92.817L52.72 92.817L52.72 88.017L46.256 88.017L46.256 92.817L19.504 92.817L19.504 102.161L45.488 117.649L52.72 117.649L52.72 101.137L62 101.137L62 92.817ZM56.752 70.3795C56.752 74.4115 52.528 76.4595 40.688 76.4595C28.976 76.4595 24.752 74.4115 24.752 70.3795C24.752 66.3475 29.04 64.3635 40.816 64.3635C52.4 64.3635 56.752 66.3475 56.752 70.3795ZM63.472 70.6355C63.472 61.4835 56.24 55.9155 40.432 55.9155C24.624 55.9155 18.096 61.4835 18.096 70.6355C18.096 79.7875 24.624 85.0995 40.56 85.0995C56.56 85.0995 63.472 79.7875 63.472 70.6355ZM46.256 36.5725L46.256 45.2765L31.28 36.5725L46.256 36.5725ZM62 28.4445L52.72 28.4445L52.72 23.6445L46.256 23.6445L46.256 28.4445L19.504 28.4445L19.504 37.7885L45.488 53.2765L52.72 53.2765L52.72 36.7645L62 36.7645L62 28.4445Z" fill="white"/>
</svg>
